<mxfile host="app.diagrams.net" modified="2023-12-05T12:56:15.742Z" agent="Mozilla/5.0 (Windows NT 10.0; Win64; x64) AppleWebKit/537.36 (KHTML, like Gecko) Chrome/114.0.0.0 Safari/537.36" version="22.1.5" etag="E5nyCufUQ8Q6Bm5jBlme" type="github">
  <diagram name="第 1 页" id="t4eYqC5lE6JD332f50Ly">
    <mxGraphModel>
      <root>
        <mxCell id="0" />
        <mxCell id="1" parent="0" />
      </root>
    </mxGraphModel>
  </diagram>
</mxfile>
